<svg xmlns="http://www.w3.org/2000/svg" xmlns:svg="http://www.w3.org/2000/svg" xmlns:xlink="http://www.w3.org/1999/xlink" version="1.0" height="859.9999999999995pt" width="1360.000000000001pt" viewBox="-4185.000000000001 -3202.9999999999995 1368.000000000001 865.9999999999995"><defs><style type="text/css">
            @font-face {
                font-family: 'lt_regular';
                src: url('https://app.creately.com/d/assets/fonts/lato/lt-regular-webfont.woff2') format('woff2'),
                    url('https://app.creately.com/d/assets/fonts/lato/lt-regular-webfont.woff') format('woff');
                font-weight: normal;
                font-style: normal;
            }
            @font-face {
                font-family: 'spartan';
                src: url('https://app.creately.com/d/assets/fonts/embed/leaguespartan-bold-webfont.woff2') format('woff2'),
                    url('https://app.creately.com/d/assets/fonts/embed/leaguespartan-bold-webfont.woff') format('woff');
                font-weight: normal;
                font-style: normal;
            }
            @font-face {
                font-family: 'noto_regular';
                src: url('https://app.creately.com/d/assets/fonts/noto/noto-regular.woff') format('woff'),
                     url('https://app.creately.com/d/assets/fonts/noto/noto-regular.woff2') format('woff2');
                font-weight: normal;
                font-style: normal;
            }
        p {
            margin: 0;
        }
        </style></defs><defs>
        <style>
            span{ display: inline-block; }
            
        </style>
        
        </defs><g id="cg4BodTKCvc"><g transform="translate(-3740 -3199.9999999999995)"><rect x="0" y="0" width="489.99999999999966" height="152" fill="rgba(255,255,255,0.01)" stroke="rgba(255,255,255,0.01)"/></g><g transform="translate(-3730, -3173.600002288818) rotate(0, 235, 49.60000228881836)" width="470" height="99.20000457763672"><text text-decoration="none" x="42.70625000000001" fill="rgb(75, 75, 75)" font-weight="bold" font-size="24pt" font-family="spartan" y="38">E-R </text><text text-decoration="none" x="107.03437500000001" fill="rgb(75, 75, 75)" font-weight="bold" font-size="24pt" font-family="spartan" y="38">Diagram </text><text text-decoration="none" x="262.003125" fill="rgb(75, 75, 75)" font-weight="bold" font-size="24pt" font-family="spartan" y="38">of </text><text text-decoration="none" x="303.878125" fill="rgb(75, 75, 75)" font-weight="bold" font-size="24pt" font-family="spartan" y="38">Library</text><text text-decoration="none" x="427.39375" fill="rgb(75, 75, 75)" font-weight="bold" font-size="24pt" font-family="spartan" y="38"/><text text-decoration="none" x="59.83906250000001" fill="rgb(75, 75, 75)" font-weight="bold" font-size="24pt" font-family="spartan" y="88">Management </text><text text-decoration="none" x="289.3546875" fill="rgb(75, 75, 75)" font-weight="bold" font-size="24pt" font-family="spartan" y="88">System</text><text text-decoration="none" x="410.2609375" fill="#4b4b4b" font-size="10pt" font-family="noto_regular" y="88"/></g></g><g id="bsjCHFY1wct"><g transform="translate(-3880 -2840)"><rect x="0" y="0" width="100" height="50" fill="rgb(250,71,114)" stroke="#FA4772" stroke-width="2" stroke-linecap="round" stroke-linejoin="round" stroke-dasharray="0 0"/></g><g transform="translate(-3848.135, -2824.2) rotate(0, 18.135, 9.2)" width="36.27" height="18.4"><text text-decoration="none" x="0.052187500000002274" fill="#ffffff" font-size="10pt" font-family="lt_regular" y="14">Books</text><text text-decoration="none" x="36.3178125" fill="#4b4b4b" font-size="10pt" font-family="noto_regular" y="14"/></g></g><g id="SbAuBv4IRqv"><g transform="translate(-3850.0000000000005 -3000)"><ellipse cx="50" cy="25" rx="50" ry="25" fill="rgb(9,149,206)" stroke="#0995CE" stroke-width="2" stroke-linecap="round" stroke-linejoin="round" stroke-dasharray="0 0"/></g><g transform="translate(-3820.5350000000003, -2984.2) rotate(0, 20.535, 9.2)" width="41.07" height="18.4"><text text-decoration="none" x="0.05375000000000085" fill="#ffffff" font-size="10pt" font-family="lt_regular" y="14">Author</text><text text-decoration="none" x="41.11625" fill="#4b4b4b" font-size="10pt" font-family="noto_regular" y="14"/></g></g><g id="tGwrXtFS9sl"><g><path d="M -3830,-2840 L -3820,-2952" fill="none" stroke="#A8A8A8" stroke-width="2" stroke-linecap="round" stroke-linejoin="round"/></g></g><g id="5nWCmA0oPmB"><g transform="translate(-4020.0000000000005 -3000)"><ellipse cx="50" cy="25" rx="50" ry="25" fill="rgb(9,149,206)" stroke="#0995CE" stroke-width="2" stroke-linecap="round" stroke-linejoin="round" stroke-dasharray="0 0"/></g><g transform="translate(-3993.8900000000003, -2984.2) rotate(0, 23.89, 9.2)" width="47.78" height="18.4"><text text-decoration="none" x="0.04156250000000128" fill="#ffffff" font-size="10pt" font-family="lt_regular" y="14">Book </text><text text-decoration="none" x="33.9634375" fill="#ffffff" font-size="10pt" font-family="lt_regular" y="14">ID</text><text text-decoration="none" x="47.8384375" fill="#4b4b4b" font-size="10pt" font-family="noto_regular" y="14"/></g></g><g id="Jjl6Po1Y0VV"><g><path d="M -3830,-2840 L -3930,-2960" fill="none" stroke="#A8A8A8" stroke-width="2" stroke-linecap="round" stroke-linejoin="round"/></g></g><g id="7cJKPeQX3Rb"><g transform="translate(-4160 -2920)"><ellipse cx="50" cy="25" rx="50" ry="25" fill="rgb(9,149,206)" stroke="#0995CE" stroke-width="2" stroke-linecap="round" stroke-linejoin="round" stroke-dasharray="0 0"/></g><g transform="translate(-4123.015, -2904.2) rotate(0, 13.015, 9.2)" width="26.03" height="18.4"><text text-decoration="none" x="0.04937500000000128" fill="#ffffff" font-size="10pt" font-family="lt_regular" y="14">Title</text><text text-decoration="none" x="26.080625" fill="#4b4b4b" font-size="10pt" font-family="noto_regular" y="14"/></g></g><g id="nH9hB8wsAVh"><g><path d="M -3880,-2815 L -4060,-2895" fill="none" stroke="#A8A8A8" stroke-width="2" stroke-linecap="round" stroke-linejoin="round"/></g></g><g id="9hewKt0xPhd"><g transform="translate(-4180.000000000001 -2829.999999999999)"><ellipse cx="50" cy="25" rx="50" ry="25" fill="rgb(9,149,206)" stroke="#0995CE" stroke-width="2" stroke-linecap="round" stroke-linejoin="round" stroke-dasharray="0 0"/></g><g transform="translate(-4144.720000000001, -2814.199999999999) rotate(0, 14.72, 9.2)" width="29.44" height="18.4"><text text-decoration="none" x="0.05125000000000135" fill="#ffffff" font-size="10pt" font-family="lt_regular" y="14">Price</text><text text-decoration="none" x="29.488750000000003" fill="#4b4b4b" font-size="10pt" font-family="noto_regular" y="14"/></g></g><g id="75eYR9P2BwZ"><g><path d="M -3880,-2815 L -4080,-2805" fill="none" stroke="#A8A8A8" stroke-width="2" stroke-linecap="round" stroke-linejoin="round"/></g></g><g id="jqPy0CToEhs"><g transform="translate(-4100 -2760)"><ellipse cx="50" cy="25" rx="50" ry="25" fill="rgb(9,149,206)" stroke="#0995CE" stroke-width="2" stroke-linecap="round" stroke-linejoin="round" stroke-dasharray="0 0"/></g><g transform="translate(-4082.06, -2744.2) rotate(0, 32.06, 9.2)" width="64.12" height="18.4"><text text-decoration="none" x="0.05531249999999943" fill="#ffffff" font-size="10pt" font-family="lt_regular" y="14">Availability</text><text text-decoration="none" x="64.1646875" fill="#4b4b4b" font-size="10pt" font-family="noto_regular" y="14"/></g></g><g id="rBvhETcE7fz"><g><path d="M -3880,-2815 L -4000,-2735" fill="none" stroke="#A8A8A8" stroke-width="2" stroke-linecap="round" stroke-linejoin="round"/></g></g><g id="OFpnhYRWg60"><g transform="translate(-3890 -2610)"><path d="M 120,35 L 60,70 L 0,35 L 60,0 L 120,35 L 120,35 Z" fill="rgb(8,65,95)" stroke="#08415F" stroke-width="2" stroke-linecap="round" stroke-linejoin="round" stroke-dasharray="0 0"/></g><g transform="translate(-3865.99, -2584.2) rotate(0, 35.99, 9.2)" width="71.98" height="18.4"><text text-decoration="none" x="0.05562499999999915" fill="#ffffff" font-size="10pt" font-family="lt_regular" y="14">Relationship</text><text text-decoration="none" x="72.02437499999999" fill="#4b4b4b" font-size="10pt" font-family="noto_regular" y="14"/></g></g><g id="D0mBSjJlJTX"><g><path d="M -3830,-2790 L -3830,-2610" fill="none" stroke="#A8A8A8" stroke-width="2" stroke-linecap="round" stroke-linejoin="round"/><path d="M -3835.75,-2785 L -3824.25,-2785 Z" fill="none" stroke="#A8A8A8" stroke-width="2" stroke-linecap="round" stroke-linejoin="round"/></g></g><g id="gsroyTgAWDf"><g transform="translate(-4110 -2600)"><ellipse cx="50" cy="25" rx="50" ry="25" fill="rgb(9,149,206)" stroke="#0995CE" stroke-width="2" stroke-linecap="round" stroke-linejoin="round" stroke-dasharray="0 0"/></g><g transform="translate(-4088.295, -2584.2) rotate(0, 28.295, 9.2)" width="56.59" height="18.4"><text text-decoration="none" x="0.048125000000002416" fill="#ffffff" font-size="10pt" font-family="lt_regular" y="14">Due </text><text text-decoration="none" x="28.063750000000002" fill="#ffffff" font-size="10pt" font-family="lt_regular" y="14">Date</text><text text-decoration="none" x="56.641875" fill="#4b4b4b" font-size="10pt" font-family="noto_regular" y="14"/></g></g><g id="ZmohF5U50eu"><g><path d="M -3890,-2575 L -4010,-2575" fill="none" stroke="#A8A8A8" stroke-width="2" stroke-linecap="round" stroke-linejoin="round"/></g></g><g id="EYQvveMReu8"><g transform="translate(-4100 -2490)"><ellipse cx="50" cy="25" rx="50" ry="25" fill="rgb(9,149,206)" stroke="#0995CE" stroke-width="2" stroke-linecap="round" stroke-linejoin="round" stroke-dasharray="0 0"/></g><g transform="translate(-4085.935, -2474.2) rotate(0, 35.935, 9.2)" width="71.87" height="18.4"><text text-decoration="none" x="0.04749999999999943" fill="#ffffff" font-size="10pt" font-family="lt_regular" y="14">Return </text><text text-decoration="none" x="43.344375" fill="#ffffff" font-size="10pt" font-family="lt_regular" y="14">Date</text><text text-decoration="none" x="71.9225" fill="#4b4b4b" font-size="10pt" font-family="noto_regular" y="14"/></g></g><g id="6K5PEvIieKc"><g><path d="M -3890,-2575 L -4010,-2480" fill="none" stroke="#A8A8A8" stroke-width="2" stroke-linecap="round" stroke-linejoin="round"/></g></g><g id="QRhxkLrFKJb"><g transform="translate(-3880.0000000000005 -2400)"><ellipse cx="50" cy="25" rx="50" ry="25" fill="rgb(9,149,206)" stroke="#0995CE" stroke-width="2" stroke-linecap="round" stroke-linejoin="round" stroke-dasharray="0 0"/></g><g transform="translate(-3844.8650000000002, -2384.2) rotate(0, 14.865, 9.2)" width="29.73" height="18.4"><text text-decoration="none" x="0.047812500000000924" fill="#ffffff" font-size="10pt" font-family="lt_regular" y="14">Issue</text><text text-decoration="none" x="29.7821875" fill="#4b4b4b" font-size="10pt" font-family="noto_regular" y="14"/></g></g><g id="a9BNek61ETo"><g><path d="M -3830,-2540 L -3830,-2400" fill="none" stroke="#A8A8A8" stroke-width="2" stroke-linecap="round" stroke-linejoin="round"/></g></g><g id="zSe0PYDdELl"><g transform="translate(-3540 -2850)"><path d="M 120,35 L 60,70 L 0,35 L 60,0 L 120,35 L 120,35 Z" fill="rgb(8,65,95)" stroke="#08415F" stroke-width="2" stroke-linecap="round" stroke-linejoin="round" stroke-dasharray="0 0"/></g><g transform="translate(-3517.33, -2824.2) rotate(0, 37.33, 9.2)" width="74.66" height="18.4"><text text-decoration="none" x="0.04406249999999545" fill="#ffffff" font-size="10pt" font-family="lt_regular" y="14">Published </text><text text-decoration="none" x="60.387812499999995" fill="#ffffff" font-size="10pt" font-family="lt_regular" y="14">by</text><text text-decoration="none" x="74.7159375" fill="#4b4b4b" font-size="10pt" font-family="noto_regular" y="14"/></g></g><g id="A2Pqwz03qo0"><g><path d="M -3780,-2815 L -3540,-2815" fill="none" stroke="#A8A8A8" stroke-width="2" stroke-linecap="round" stroke-linejoin="round"/><path d="M -3775,-2809.25 L -3775,-2820.75" fill="none" stroke="#A8A8A8" stroke-width="2" stroke-linecap="round" stroke-linejoin="round"/><circle cx="-3765" cy="-2815" r="5.75" fill="rgb(255,255,255)" stroke="#A8A8A8" stroke-width="2" stroke-linecap="round" stroke-linejoin="round"/><path d="Z" fill="none" stroke="#A8A8A8" stroke-width="2" stroke-linecap="round" stroke-linejoin="round"/></g></g><g id="qVmrpDqrfdr"><g transform="translate(-3210.0000000000005 -2840)"><rect x="0" y="0" width="100" height="50" fill="rgb(250,71,114)" stroke="#FA4772" stroke-width="2" stroke-linecap="round" stroke-linejoin="round" stroke-dasharray="0 0"/></g><g transform="translate(-3187.1600000000003, -2824.2) rotate(0, 27.16, 9.2)" width="54.32" height="18.4"><text text-decoration="none" x="0.05375000000000085" fill="#ffffff" font-size="10pt" font-family="lt_regular" y="14">Publisher</text><text text-decoration="none" x="54.36625" fill="#4b4b4b" font-size="10pt" font-family="noto_regular" y="14"/></g></g><g id="NPXeSdUiqek"><g><path d="M -3420,-2815 L -3210,-2815" fill="none" stroke="#A8A8A8" stroke-width="2" stroke-linecap="round" stroke-linejoin="round"/><path d="M -3210,-2820.75 L -3220,-2815 L -3210,-2815 M -3220,-2815 L -3210,-2809.25" fill="none" stroke="#A8A8A8" stroke-width="2" stroke-linecap="round" stroke-linejoin="round"/><circle cx="-3225" cy="-2815" r="5.75" fill="rgb(255,255,255)" stroke="#A8A8A8" stroke-width="2" stroke-linecap="round" stroke-linejoin="round"/><path d="Z" fill="none" stroke="#A8A8A8" stroke-width="2" stroke-linecap="round" stroke-linejoin="round"/></g></g><g id="8Drw9U6zvKn"><g transform="translate(-3060.000000000001 -3000)"><ellipse cx="50" cy="25" rx="50" ry="25" fill="rgb(9,149,206)" stroke="#0995CE" stroke-width="2" stroke-linecap="round" stroke-linejoin="round" stroke-dasharray="0 0"/></g><g transform="translate(-3031.170000000001, -2984.2) rotate(0, 21.17, 9.2)" width="42.34" height="18.4"><text text-decoration="none" x="0.055937500000002416" fill="#ffffff" font-size="10pt" font-family="lt_regular" y="14">pub_ID</text><text text-decoration="none" x="42.3840625" fill="#4b4b4b" font-size="10pt" font-family="noto_regular" y="14"/></g></g><g id="qTAw6ct2eE2"><g><path d="M -3110,-2815 L -3050,-2960" fill="none" stroke="#A8A8A8" stroke-width="2" stroke-linecap="round" stroke-linejoin="round"/></g></g><g id="uu64jf0Fgig"><g transform="translate(-2970.0000000000005 -2909.9999999999995)"><ellipse cx="50" cy="25" rx="50" ry="25" fill="rgb(9,149,206)" stroke="#0995CE" stroke-width="2" stroke-linecap="round" stroke-linejoin="round" stroke-dasharray="0 0"/></g><g transform="translate(-2943.6850000000004, -2894.1999999999994) rotate(0, 23.685, 9.2)" width="47.37" height="18.4"><text text-decoration="none" x="0.05531249999999943" fill="#ffffff" font-size="10pt" font-family="lt_regular" y="14">Address</text><text text-decoration="none" x="47.4146875" fill="#4b4b4b" font-size="10pt" font-family="noto_regular" y="14"/></g></g><g id="t9ZBE1u3wm8"><g><path d="M -3110,-2815 L -2970,-2885" fill="none" stroke="#A8A8A8" stroke-width="2" stroke-linecap="round" stroke-linejoin="round"/></g></g><g id="2EFVHVgd4wA"><g transform="translate(-2920 -2810)"><ellipse cx="50" cy="25" rx="50" ry="25" fill="rgb(9,149,206)" stroke="#0995CE" stroke-width="2" stroke-linecap="round" stroke-linejoin="round" stroke-dasharray="0 0"/></g><g transform="translate(-2887.395, -2794.2) rotate(0, 17.395, 9.2)" width="34.79" height="18.4"><text text-decoration="none" x="0.046562500000000284" fill="#ffffff" font-size="10pt" font-family="lt_regular" y="14">Name</text><text text-decoration="none" x="34.8434375" fill="#4b4b4b" font-size="10pt" font-family="noto_regular" y="14"/></g></g><g id="W3tElUKIzu4"><g><path d="M -3110,-2815 L -2920,-2785" fill="none" stroke="#A8A8A8" stroke-width="2" stroke-linecap="round" stroke-linejoin="round"/></g></g><g id="AOgpto6XjMs"><g transform="translate(-3210.0000000000005 -2600)"><rect x="0" y="0" width="100" height="50" fill="rgb(250,71,114)" stroke="#FA4772" stroke-width="2" stroke-linecap="round" stroke-linejoin="round" stroke-dasharray="0 0"/></g><g transform="translate(-3184.8600000000006, -2584.2) rotate(0, 24.86, 9.2)" width="49.72" height="18.4"><text text-decoration="none" x="0.05062500000000014" fill="#ffffff" font-size="10pt" font-family="lt_regular" y="14">Member</text><text text-decoration="none" x="49.769375" fill="#4b4b4b" font-size="10pt" font-family="noto_regular" y="14"/></g></g><g id="luTg7epzRzN"><g><path d="M -3770,-2575 L -3210,-2575" fill="none" stroke="#A8A8A8" stroke-width="2" stroke-linecap="round" stroke-linejoin="round"/><path d="M -3210,-2580.75 L -3220,-2575 L -3210,-2575 M -3220,-2575 L -3210,-2569.25" fill="none" stroke="#A8A8A8" stroke-width="2" stroke-linecap="round" stroke-linejoin="round"/><circle cx="-3225" cy="-2575" r="5.75" fill="rgb(255,255,255)" stroke="#A8A8A8" stroke-width="2" stroke-linecap="round" stroke-linejoin="round"/><path d="Z" fill="none" stroke="#A8A8A8" stroke-width="2" stroke-linecap="round" stroke-linejoin="round"/></g></g><g id="8aWVkHzMJJY"><g transform="translate(-3160 -2710)"><ellipse cx="50" cy="25" rx="50" ry="25" fill="rgb(9,149,206)" stroke="#0995CE" stroke-width="2" stroke-linecap="round" stroke-linejoin="round" stroke-dasharray="0 0"/></g><g transform="translate(-3144.36, -2694.2) rotate(0, 34.36, 9.2)" width="68.72" height="18.4"><text text-decoration="none" x="0.05062499999999659" fill="#ffffff" font-size="10pt" font-family="lt_regular" y="14">Expiry_date</text><text text-decoration="none" x="68.769375" fill="#4b4b4b" font-size="10pt" font-family="noto_regular" y="14"/></g></g><g id="6HTtTswz4VD"><g><path d="M -3160,-2600 L -3130,-2662" fill="none" stroke="#A8A8A8" stroke-width="2" stroke-linecap="round" stroke-linejoin="round"/></g></g><g id="3S0xzdPfzlS"><g transform="translate(-3020.0000000000005 -2640)"><ellipse cx="50" cy="25" rx="50" ry="25" fill="rgb(9,149,206)" stroke="#0995CE" stroke-width="2" stroke-linecap="round" stroke-linejoin="round" stroke-dasharray="0 0"/></g><g transform="translate(-2999.5050000000006, -2624.2) rotate(0, 29.505, 9.2)" width="59.01" height="18.4"><text text-decoration="none" x="0.047187499999999716" fill="#ffffff" font-size="10pt" font-family="lt_regular" y="14">attriName</text><text text-decoration="none" x="59.0628125" fill="#4b4b4b" font-size="10pt" font-family="noto_regular" y="14"/></g></g><g id="VQK5yuWBztq"><g><path d="M -3110,-2575 L -3020,-2615" fill="none" stroke="#A8A8A8" stroke-width="2" stroke-linecap="round" stroke-linejoin="round"/></g></g><g id="kGiw43igket"><g transform="translate(-2930 -2560)"><ellipse cx="50" cy="25" rx="50" ry="25" fill="rgb(9,149,206)" stroke="#0995CE" stroke-width="2" stroke-linecap="round" stroke-linejoin="round" stroke-dasharray="0 0"/></g><g transform="translate(-2902.48, -2544.2) rotate(0, 22.48, 9.2)" width="44.96" height="18.4"><text text-decoration="none" x="0.05343750000000114" fill="#ffffff" font-size="10pt" font-family="lt_regular" y="14">address</text><text text-decoration="none" x="45.0065625" fill="#4b4b4b" font-size="10pt" font-family="noto_regular" y="14"/></g></g><g id="HFLrTYaFysr"><g><path d="M -3110,-2575 L -2930,-2535" fill="none" stroke="#A8A8A8" stroke-width="2" stroke-linecap="round" stroke-linejoin="round"/></g></g><g id="0XRFbijQa2e"><g transform="translate(-3030.0000000000005 -2500)"><ellipse cx="50" cy="25" rx="50" ry="25" fill="rgb(9,149,206)" stroke="#0995CE" stroke-width="2" stroke-linecap="round" stroke-linejoin="round" stroke-dasharray="0 0"/></g><g transform="translate(-3014.3400000000006, -2484.2) rotate(0, 34.34, 9.2)" width="68.68" height="18.4"><text text-decoration="none" x="0.05406250000000057" fill="#ffffff" font-size="10pt" font-family="lt_regular" y="14">memb_type</text><text text-decoration="none" x="68.7259375" fill="#4b4b4b" font-size="10pt" font-family="noto_regular" y="14"/></g></g><g id="PUqJkJ4rhDF"><g><path d="M -3110,-2575 L -3020,-2490" fill="none" stroke="#A8A8A8" stroke-width="2" stroke-linecap="round" stroke-linejoin="round"/></g></g><g id="GHCY7echK2e"><g transform="translate(-3280.0000000000005 -2460)"><ellipse cx="50" cy="25" rx="50" ry="25" fill="rgb(9,149,206)" stroke="#0995CE" stroke-width="2" stroke-linecap="round" stroke-linejoin="round" stroke-dasharray="0 0"/></g><g transform="translate(-3258.2050000000004, -2444.2) rotate(0, 28.205, 9.2)" width="56.41" height="18.4"><text text-decoration="none" x="0.051874999999999005" fill="#ffffff" font-size="10pt" font-family="lt_regular" y="14">memb_ID</text><text text-decoration="none" x="56.458124999999995" fill="#4b4b4b" font-size="10pt" font-family="noto_regular" y="14"/></g></g><g id="BcTaAsXV5tf"><g><path d="M -3160,-2550 L -3190,-2450" fill="none" stroke="#A8A8A8" stroke-width="2" stroke-linecap="round" stroke-linejoin="round"/></g></g><g id="xu5z7UXpiEm"><g transform="translate(-3170 -2390)"><ellipse cx="50" cy="25" rx="50" ry="25" fill="rgb(9,149,206)" stroke="#0995CE" stroke-width="2" stroke-linecap="round" stroke-linejoin="round" stroke-dasharray="0 0"/></g><g transform="translate(-3152.695, -2374.2) rotate(0, 32.695, 9.2)" width="65.39" height="18.4"><text text-decoration="none" x="0.04968749999999744" fill="#ffffff" font-size="10pt" font-family="lt_regular" y="14">memb_info</text><text text-decoration="none" x="65.4403125" fill="#4b4b4b" font-size="10pt" font-family="noto_regular" y="14"/></g></g><g id="NIJLDj7g8IR"><g><path d="M -3160,-2550 L -3140,-2388" fill="none" stroke="#A8A8A8" stroke-width="2" stroke-linecap="round" stroke-linejoin="round"/></g></g></svg>